<svg width="40" height="40" viewBox="0 0 40 40" fill="none" xmlns="http://www.w3.org/2000/svg">
<path d="M30.6067 9.3934C36.4646 15.2513 36.4646 24.7487 30.6067 30.6066C24.7488 36.4644 15.2514 36.4644 9.39352 30.6066C3.53566 24.7487 3.53566 15.2512 9.39352 9.3934C15.2514 3.53553 24.7489 3.53553 30.6067 9.3934" stroke="black" stroke-width="2" stroke-linecap="round" stroke-linejoin="round"/>
<path d="M23.3152 13.8732C25.1461 15.7041 25.1461 18.6726 23.3152 20.5035C21.4843 22.3344 18.5158 22.3344 16.6849 20.5035C14.854 18.6726 14.854 15.7041 16.6849 13.8732C18.5158 12.0423 21.4843 12.0423 23.3152 13.8732" stroke="black" stroke-width="2" stroke-linecap="round" stroke-linejoin="round"/>
<path d="M29.5117 31.5967C27.1201 29.0783 23.7467 27.5 20.0001 27.5C16.2534 27.5 12.8801 29.0783 10.4884 31.5983" stroke="black" stroke-width="2" stroke-linecap="round" stroke-linejoin="round"/>
</svg>
